<svg width="177" height="26" viewBox="0 0 177 26" fill="none" xmlns="http://www.w3.org/2000/svg">
<path fill-rule="evenodd" clip-rule="evenodd" d="M159.753 12.8131C160.235 12.3211 160.51 11.6366 160.51 10.9842C160.51 10.3211 160.274 9.64731 159.881 9.20881C159.094 8.36389 158.435 8.22485 156.842 8.22485H152.289V17.6473H153.568V13.6152H157.039L159.251 17.6473H160.726L158.396 13.5297C158.937 13.4227 159.389 13.1874 159.753 12.8131ZM159.232 10.9949C159.232 12.0323 158.563 12.6527 157.432 12.6527H153.568V9.27298H157.245C158.602 9.27298 159.232 9.81843 159.232 10.9949ZM137.943 9.27314H141.021V17.6581H142.309V9.27314H145.387V8.2357H137.943V9.27314ZM117.166 14.0762C117.166 15.9264 116.054 16.9425 114.048 16.9425C112.308 16.9425 111.305 15.8836 111.305 14.0441V8.23659H110.027V13.9478C110.027 14.782 110.135 15.8409 110.981 16.7499C111.492 17.2847 112.436 17.9157 114.029 17.9157C115.356 17.9157 116.408 17.52 117.156 16.7499C118.001 15.8409 118.11 14.7713 118.11 13.9478V8.23659H117.156V14.0762H117.166ZM125.661 8.2357H126.94V16.6207H132.613V17.6581H125.661V8.2357ZM172.791 8.2357L172.821 8.28918L177 17.6581H175.555L174.384 15.0378H169.497L168.396 17.6581H167.246L171.503 8.2357H172.791ZM169.891 14.118H173.971L171.887 9.42287L169.891 14.118Z" fill="#0C2340"/>
<path fill-rule="evenodd" clip-rule="evenodd" d="M21.8139 19.5937C21.7844 19.7541 21.7648 19.968 21.7648 20.1605C21.7648 20.492 21.8729 20.8985 22.1679 21.091C21.9123 21.2193 21.5681 21.2835 21.2436 21.2835C20.516 21.2835 20.0735 20.8664 20.044 20.0642C19.9063 16.5134 24.4689 7.92523 27.5663 5.86106C24.727 7.14944 20.89 12.1187 18.5325 15.1718C18.3263 15.4389 18.1314 15.6912 17.9495 15.9252C17.7146 16.2291 17.4858 16.5418 17.2566 16.8553C16.7758 17.5126 16.2929 18.1728 15.7469 18.7594C15.3143 19.2193 14.8816 19.4974 14.2523 19.4974C14.0556 19.4974 13.8688 19.4653 13.6918 19.3477C14.0655 18.9092 14.3408 18.3958 14.5669 17.8503C15.0276 16.7686 15.4102 15.564 15.7999 14.3372C16.8743 10.9549 18.0026 7.40296 20.9683 5.78619C18.3872 6.42444 16.4552 9.42272 14.3947 12.6205C11.6902 16.8176 8.7643 21.3584 3.85869 21.3584C1.67574 21.3584 0.0926138 20.0535 0.00411588 17.6471C-0.123714 14.2568 2.74755 12.1177 5.61882 12.1177C7.27078 12.1177 8.37209 12.9092 8.43109 14.4814C8.48025 15.8503 7.68377 17.1552 6.60213 17.7006C6.21864 17.8931 5.84498 17.8396 5.76632 17.6364C6.83812 17.2621 7.97876 16.1177 7.94927 14.5669C7.9296 13.4118 7.24128 12.7274 6.04164 12.7274C3.42604 12.7274 0.898929 15.5188 1.00709 18.3423C1.07592 20.107 2.3149 20.8343 3.78986 20.8343C7.36695 20.8343 9.72929 17.1348 11.6507 14.1257C11.916 13.7103 12.1728 13.3081 12.4233 12.9306C14.272 10.1391 17.0941 6.58833 20.2308 5.57229C20.693 5.42256 21.165 5.337 21.6468 5.28352C19.572 4.57764 17.3005 4.06427 15.1274 4.06427C13.269 4.06427 10.3682 4.67389 10.3682 7.05892C10.3682 7.66854 10.5944 8.2033 11.1352 8.52415C11.1057 8.56693 11.0074 8.60972 10.85 8.60972C10.1224 8.60972 9.43406 7.93592 9.43406 6.81293C9.43406 4.12844 12.443 3.41187 14.5473 3.41187C17.3104 3.41187 20.2996 4.28887 22.5809 5.24074C22.8563 5.35839 22.8858 5.5402 22.8464 5.65785C22.6793 5.59368 22.5219 5.57229 22.3941 5.57229C20.824 5.57229 19.2838 9.78222 18.5117 11.8926C18.3989 12.2008 18.3026 12.4642 18.2249 12.6632C18.1645 12.8186 18.1043 12.9743 18.0442 13.1301C17.595 14.2931 17.1441 15.4609 16.5631 16.5455C17.1947 15.7782 17.8457 14.9303 18.5217 14.0498C21.8973 9.65327 25.8942 4.44751 31.1947 4.4386C31.4897 4.4493 31.6864 4.59903 31.6471 4.81293C31.2046 4.75946 30.6441 4.81293 30.1721 4.99475C26.6813 6.34234 22.5318 15.5509 21.8139 19.5937ZM69.3669 12.0216C68.22 12.0216 67.0234 13.4286 66.2645 14.3211C66.197 14.4005 66.133 14.4757 66.0728 14.5456C67.3996 12.1632 68.7702 9.9103 70.1648 7.6182L70.165 7.61789C70.517 7.03927 70.8706 6.45816 71.2253 5.87183H69.4553C68.3934 7.60445 67.2331 9.51888 66.1219 11.4547C65.1484 12.9199 63.8308 14.4707 62.346 15.0911C62.4247 14.6953 62.4542 14.2889 62.4345 13.8825C62.4148 13.3584 62.2575 12.674 61.8544 12.3531C61.5889 12.1285 61.1955 11.9788 60.6842 11.9788C59.1011 11.9788 57.4491 13.059 56.3773 14.6312L56.3871 14.6098L56.3282 14.706C56.2298 14.8558 56.1413 14.9948 56.0528 15.1552C55.808 15.5683 55.5658 16.0028 55.3252 16.4345L55.3251 16.4345C54.3386 18.2042 53.3792 19.9253 52.3752 19.9253C52.0999 19.9253 51.9131 19.7648 51.8934 19.337C51.8248 16.8634 57.0235 8.36309 58.5267 5.90521L58.5406 5.88253H56.7411C55.4137 8.10712 53.7322 10.952 52.3359 13.6151C51.4116 15.3905 48.973 20.0322 46.8687 20.0322C46.2197 20.0322 45.8657 19.6365 45.8461 18.9306C45.8067 17.8825 46.2984 16.8237 46.8195 15.9895C47.0064 16.0429 47.1932 16.075 47.3899 16.075C48.7862 16.075 51.0969 14.7916 51.0379 13.0376C51.0084 12.2355 50.3201 11.9788 49.6318 11.9788C47.9503 11.9788 46.1509 13.7542 45.2757 15.1766C45.1154 15.4383 44.9215 15.8093 44.7012 16.2307C43.8953 17.7728 42.7369 19.9894 41.5785 19.9894C41.2343 19.9894 41.0278 19.8183 41.018 19.4333C40.9904 18.6538 41.5403 17.7972 42.127 16.8832C42.796 15.841 43.513 14.7241 43.4763 13.5617C43.4468 12.6847 42.8666 12.0216 41.9226 12.0216C40.5971 12.0216 39.2906 13.5955 38.4622 14.5936L38.4221 14.6419C38.6581 14.1285 38.8941 13.6151 39.1399 13.1018C39.2881 12.9716 39.4708 12.8152 39.6787 12.6371L39.6788 12.6371C41.4015 11.1619 44.8553 8.20419 44.7939 6.43867C44.7742 5.85044 44.4104 5.46541 43.8204 5.46541C41.4802 5.46541 39.1399 9.7007 38.1369 11.6793C37.9637 12.0222 37.8006 12.3739 37.6375 12.7254C37.4394 13.1522 37.2415 13.5789 37.0258 13.9895C36.1211 15.69 33.4367 19.9894 31.4799 19.9894C30.7817 19.9894 30.6146 19.5937 30.5949 18.8985C30.5359 17.2301 32.9155 12.4494 34.597 12.4494C34.8625 12.4494 35.0886 12.567 35.0985 12.8879C35.113 13.3106 34.794 13.5767 34.471 13.8461C34.1402 14.1219 33.8052 14.4012 33.8202 14.8558C33.83 15.2194 34.0955 15.444 34.42 15.444C35.3345 15.444 35.6885 14.1606 35.659 13.3371C35.6295 12.428 35.0886 12.0216 34.2922 12.0216C32.1584 12.0216 30.3687 14.2034 29.4739 16.0857C29.0118 17.0483 27.468 19.9788 26.3273 19.9788C26.0618 19.9788 25.8947 19.8076 25.8849 19.5189C25.8259 17.8611 28.1268 13.6365 28.9626 12.1285H27.291C26.0717 13.9146 24.577 16.8772 24.577 18.5884C24.577 19.7542 25.1572 20.46 26.2093 20.46C27.3893 20.46 28.4513 18.8985 29.0314 17.936C28.9921 19.5616 29.9066 20.4707 31.3816 20.4707C33.2204 20.4707 34.8821 18.2996 35.8556 16.8344C35.6393 17.3584 34.8821 19.2087 34.4888 20.3317L36.1014 20.2675C36.6619 18.6526 37.3896 17.0804 38.3041 15.6793C38.9334 14.7167 40.7525 12.5135 41.903 12.5135C42.1095 12.5135 42.2963 12.6419 42.3061 12.8879C42.3226 13.3897 41.8489 14.0962 41.2987 14.9168C40.5355 16.055 39.6252 17.4127 39.6709 18.7488C39.7004 19.7114 40.4772 20.4814 41.3622 20.4814C42.8273 20.4814 43.8401 18.8772 44.5088 17.6686C44.4891 17.8504 44.4793 18.0322 44.4793 18.2141C44.5284 19.6472 45.5117 20.4707 46.7802 20.4707C48.4518 20.4707 49.9268 18.6098 50.8118 17.2836C50.7331 17.6793 50.6446 18.1499 50.6544 18.5563C50.6938 19.6686 51.2543 20.4066 52.3162 20.4066C53.6177 20.4066 54.6211 18.6643 55.254 17.5654L55.3055 17.4761C55.276 17.7969 55.276 18.1178 55.3252 18.3959C55.5218 19.6365 56.3085 20.46 57.5081 20.46C59.6124 20.46 61.5692 17.5616 62.2083 15.6151C63.172 15.305 64.0078 14.6419 64.7355 13.9146L64.8338 13.7435C64.7797 13.8451 64.7232 13.9467 64.6666 14.0483C64.6101 14.1499 64.5535 14.2515 64.4995 14.3531C63.9193 15.4333 63.0245 17.1766 63.0737 18.4921C63.113 19.7969 64.1455 20.4173 65.2468 20.4173C67.4396 20.4173 69.3373 18.5777 70.2813 16.5884C70.6452 15.829 70.9303 14.7702 70.9008 13.9039C70.8516 12.8986 70.3895 12.0216 69.3669 12.0216ZM50.0448 12.4173C50.2021 12.4173 50.33 12.5028 50.3398 12.6847C50.3791 13.8825 48.3928 15.7007 47.3309 15.7007C47.2227 15.7007 47.1145 15.7007 47.0064 15.6686C47.4489 14.9199 49.2385 12.4173 50.0448 12.4173ZM43.8303 5.98948C44.1449 5.98948 44.3219 6.1606 44.3318 6.46006C44.3794 7.90964 41.0263 10.8026 39.8131 11.8494L39.7004 11.9467L39.7083 11.9308C40.3397 10.6663 42.6749 5.98948 43.8303 5.98948ZM57.2918 20.0322C56.8296 20.0322 56.5641 19.5937 56.5543 19.1338C56.5248 18.2461 57.1443 16.9627 57.5671 16.182C58.2948 14.8558 59.1109 13.4547 60.3106 12.7488C59.9566 13.1766 59.7599 13.7863 59.7599 14.3852C59.7599 15.1445 60.1729 15.8718 61.0874 15.8183C60.4679 17.2301 58.9143 20.0322 57.2918 20.0322ZM61.2939 15.3264C60.5072 15.4333 60.2319 15.0055 60.2319 14.3959C60.2319 13.6472 60.7235 12.6312 61.3135 12.6312C61.5692 12.6312 61.7265 12.8772 61.7462 13.2622C61.7659 13.9467 61.5299 14.7167 61.2939 15.3264ZM68.5999 16.2141C68.0197 17.305 66.4759 20.0322 65.1189 20.0322C64.6273 20.0322 64.3421 19.7221 64.3225 19.1873C64.2831 18.0108 65.2271 16.5242 65.8269 15.6151C66.4169 14.7381 68.2754 12.5242 69.2783 12.5242C69.5733 12.5242 69.7602 12.6526 69.77 12.9948C69.7995 13.8076 68.9834 15.4975 68.5999 16.2141ZM28.7463 9.47598C28.6676 10.0749 29.0314 10.5883 29.5427 10.5883C30.0541 10.5883 30.5555 10.0749 30.6342 9.47598C30.7129 8.87705 30.3491 8.36369 29.8377 8.36369C29.3264 8.36369 28.8249 8.87705 28.7463 9.47598Z" fill="#0C2340"/>
<path d="M71.3335 19.5721H70.9894V20.4812H70.8124V19.5721H70.478V19.4331H71.3433V19.5721H71.3335ZM71.6777 20.4705H71.4908V19.4224H71.776L72.1103 20.2138L72.4348 19.4224H72.72V20.4705H72.543V19.5935H72.5331L72.1693 20.4705H72.0513L71.6875 19.5935H71.6777V20.4705Z" fill="#0C2340"/>
<path d="M98.5416 25.0909H98.1975V26H98.0205V25.0909H97.6862V24.9519H98.5515V25.0909H98.5416ZM98.876 25.9893H98.699V24.9412H98.9841L99.3185 25.7326L99.643 24.9412H99.9281V25.9893H99.7511V25.1123H99.7413L99.3775 25.9893H99.2595L98.8956 25.1123H98.8858V25.9893H98.876Z" fill="white"/>
<path d="M84.8342 25.9999V0H96.6536V25.9999L90.7439 19.5935L84.8342 25.9999Z" fill="#C80F2E"/>
</svg>
