<svg width="73" height="19" viewBox="0 0 73 19" fill="none" xmlns="http://www.w3.org/2000/svg">
<path fill-rule="evenodd" clip-rule="evenodd" d="M21.8139 16.5937C21.7844 16.7541 21.7648 16.968 21.7648 17.1605C21.7648 17.492 21.8729 17.8985 22.1679 18.091C21.9123 18.2193 21.5681 18.2835 21.2436 18.2835C20.516 18.2835 20.0735 17.8664 20.044 17.0642C19.9063 13.5134 24.4689 4.92523 27.5663 2.86106C24.727 4.14944 20.89 9.11873 18.5325 12.1718C18.3263 12.4389 18.1314 12.6912 17.9495 12.9252C17.7146 13.2291 17.4858 13.5418 17.2566 13.8553C16.7758 14.5126 16.2929 15.1728 15.7469 15.7594C15.3143 16.2193 14.8816 16.4974 14.2523 16.4974C14.0556 16.4974 13.8688 16.4653 13.6918 16.3477C14.0655 15.9092 14.3408 15.3958 14.5669 14.8503C15.0276 13.7686 15.4102 12.564 15.7999 11.3372C16.8743 7.95488 18.0026 4.40296 20.9683 2.78619C18.3872 3.42444 16.4552 6.42272 14.3947 9.62054C11.6902 13.8176 8.7643 18.3584 3.85869 18.3584C1.67574 18.3584 0.0926138 17.0535 0.00411588 14.6471C-0.123714 11.2568 2.74755 9.11773 5.61882 9.11773C7.27078 9.11773 8.37209 9.90917 8.43109 11.4814C8.48025 12.8503 7.68377 14.1552 6.60213 14.7006C6.21864 14.8931 5.84498 14.8396 5.76632 14.6364C6.83812 14.2621 7.97876 13.1177 7.94927 11.5669C7.9296 10.4118 7.24128 9.72735 6.04164 9.72735C3.42604 9.72735 0.898929 12.5188 1.00709 15.3423C1.07592 17.107 2.3149 17.8343 3.78986 17.8343C7.36695 17.8343 9.72929 14.1348 11.6507 11.1257C11.916 10.7103 12.1728 10.3081 12.4233 9.93056C14.272 7.13912 17.0941 3.58833 20.2308 2.57229C20.693 2.42256 21.165 2.337 21.6468 2.28352C19.572 1.57764 17.3005 1.06427 15.1274 1.06427C13.269 1.06427 10.3682 1.67389 10.3682 4.05892C10.3682 4.66854 10.5944 5.2033 11.1352 5.52415C11.1057 5.56693 11.0074 5.60972 10.85 5.60972C10.1224 5.60972 9.43406 4.93592 9.43406 3.81293C9.43406 1.12844 12.443 0.411865 14.5473 0.411865C17.3104 0.411865 20.2996 1.28887 22.5809 2.24074C22.8563 2.35839 22.8858 2.5402 22.8464 2.65785C22.6793 2.59368 22.5219 2.57229 22.3941 2.57229C20.824 2.57229 19.2838 6.78222 18.5117 8.89257C18.3989 9.20077 18.3026 9.4642 18.2249 9.66318C18.1645 9.81859 18.1043 9.9743 18.0442 10.1301C17.595 11.2931 17.1441 12.4609 16.5631 13.5455C17.1947 12.7782 17.8457 11.9303 18.5217 11.0498C21.8973 6.65327 25.8942 1.44751 31.1947 1.4386C31.4897 1.4493 31.6864 1.59903 31.6471 1.81293C31.2046 1.75946 30.6441 1.81293 30.1721 1.99475C26.6813 3.34234 22.5318 12.5509 21.8139 16.5937ZM69.3669 9.02155C68.22 9.02155 67.0234 10.4286 66.2645 11.3211C66.197 11.4005 66.133 11.4757 66.0728 11.5456C67.3996 9.16318 68.7702 6.9103 70.1648 4.6182L70.165 4.61789C70.517 4.03927 70.8706 3.45816 71.2253 2.87183H69.4553C68.3934 4.60445 67.2331 6.51888 66.1219 8.45471C65.1484 9.91994 63.8308 11.4707 62.346 12.0911C62.4247 11.6953 62.4542 11.2889 62.4345 10.8825C62.4148 10.3584 62.2575 9.67396 61.8544 9.3531C61.5889 9.1285 61.1955 8.97877 60.6842 8.97877C59.1011 8.97877 57.4491 10.059 56.3773 11.6312L56.3871 11.6098L56.3282 11.706C56.2298 11.8558 56.1413 11.9948 56.0528 12.1552C55.808 12.5683 55.5658 13.0028 55.3252 13.4345L55.3251 13.4345C54.3386 15.2042 53.3792 16.9253 52.3752 16.9253C52.0999 16.9253 51.9131 16.7648 51.8934 16.337C51.8248 13.8634 57.0235 5.36309 58.5267 2.90521L58.5406 2.88253H56.7411C55.4137 5.10712 53.7322 7.95203 52.3359 10.6151C51.4116 12.3905 48.973 17.0322 46.8687 17.0322C46.2197 17.0322 45.8657 16.6365 45.8461 15.9306C45.8067 14.8825 46.2984 13.8237 46.8195 12.9895C47.0064 13.0429 47.1932 13.075 47.3899 13.075C48.7862 13.075 51.0969 11.7916 51.0379 10.0376C51.0084 9.23545 50.3201 8.97877 49.6318 8.97877C47.9503 8.97877 46.1509 10.7542 45.2757 12.1766C45.1154 12.4383 44.9215 12.8093 44.7012 13.2307C43.8953 14.7728 42.7369 16.9894 41.5785 16.9894C41.2343 16.9894 41.0278 16.8183 41.018 16.4333C40.9904 15.6538 41.5403 14.7972 42.127 13.8832C42.796 12.841 43.513 11.7241 43.4763 10.5617C43.4468 9.68465 42.8666 9.02155 41.9226 9.02155C40.5971 9.02155 39.2906 10.5955 38.4622 11.5936L38.4221 11.6419C38.6581 11.1285 38.8941 10.6151 39.1399 10.1018C39.2881 9.97161 39.4708 9.81517 39.6787 9.63713L39.6788 9.63708C41.4015 8.16186 44.8553 5.20419 44.7939 3.43867C44.7742 2.85044 44.4104 2.46541 43.8204 2.46541C41.4802 2.46541 39.1399 6.7007 38.1369 8.67931C37.9637 9.02223 37.8006 9.37388 37.6375 9.72539C37.4394 10.1522 37.2415 10.5789 37.0258 10.9895C36.1211 12.69 33.4367 16.9894 31.4799 16.9894C30.7817 16.9894 30.6146 16.5937 30.5949 15.8985C30.5359 14.2301 32.9155 9.44936 34.597 9.44936C34.8625 9.44936 35.0886 9.567 35.0985 9.88786C35.113 10.3106 34.794 10.5767 34.471 10.8461C34.1402 11.1219 33.8052 11.4012 33.8202 11.8558C33.83 12.2194 34.0955 12.444 34.42 12.444C35.3345 12.444 35.6885 11.1606 35.659 10.3371C35.6295 9.42797 35.0886 9.02155 34.2922 9.02155C32.1584 9.02155 30.3687 11.2034 29.4739 13.0857C29.0118 14.0483 27.468 16.9788 26.3273 16.9788C26.0618 16.9788 25.8947 16.8076 25.8849 16.5189C25.8259 14.8611 28.1268 10.6365 28.9626 9.1285H27.291C26.0717 10.9146 24.577 13.8772 24.577 15.5884C24.577 16.7542 25.1572 17.46 26.2093 17.46C27.3893 17.46 28.4513 15.8985 29.0314 14.936C28.9921 16.5616 29.9066 17.4707 31.3816 17.4707C33.2204 17.4707 34.8821 15.2996 35.8556 13.8344C35.6393 14.3584 34.8821 16.2087 34.4888 17.3317L36.1014 17.2675C36.6619 15.6526 37.3896 14.0804 38.3041 12.6793C38.9334 11.7167 40.7525 9.51353 41.903 9.51353C42.1095 9.51353 42.2963 9.64187 42.3061 9.88786C42.3226 10.3897 41.8489 11.0962 41.2987 11.9168C40.5355 13.055 39.6252 14.4127 39.6709 15.7488C39.7004 16.7114 40.4772 17.4814 41.3622 17.4814C42.8273 17.4814 43.8401 15.8772 44.5088 14.6686C44.4891 14.8504 44.4793 15.0322 44.4793 15.2141C44.5284 16.6472 45.5117 17.4707 46.7802 17.4707C48.4518 17.4707 49.9268 15.6098 50.8118 14.2836C50.7331 14.6793 50.6446 15.1499 50.6544 15.5563C50.6938 16.6686 51.2543 17.4066 52.3162 17.4066C53.6177 17.4066 54.6211 15.6643 55.254 14.5654L55.3055 14.4761C55.276 14.7969 55.276 15.1178 55.3252 15.3959C55.5218 16.6365 56.3085 17.46 57.5081 17.46C59.6124 17.46 61.5692 14.5616 62.2083 12.6151C63.172 12.305 64.0078 11.6419 64.7355 10.9146L64.8338 10.7435C64.7797 10.8451 64.7232 10.9467 64.6666 11.0483C64.6101 11.1499 64.5535 11.2515 64.4995 11.3531C63.9193 12.4333 63.0245 14.1766 63.0737 15.4921C63.113 16.7969 64.1455 17.4173 65.2468 17.4173C67.4396 17.4173 69.3373 15.5777 70.2813 13.5884C70.6452 12.829 70.9303 11.7702 70.9008 10.9039C70.8516 9.89855 70.3895 9.02155 69.3669 9.02155ZM50.0448 9.41727C50.2021 9.41727 50.33 9.50283 50.3398 9.68465C50.3791 10.8825 48.3928 12.7007 47.3309 12.7007C47.2227 12.7007 47.1145 12.7007 47.0064 12.6686C47.4489 11.9199 49.2385 9.41727 50.0448 9.41727ZM43.8303 2.98948C44.1449 2.98948 44.3219 3.1606 44.3318 3.46006C44.3794 4.90964 41.0263 7.80264 39.8131 8.84937L39.7004 8.94668L39.7083 8.93077C40.3397 7.66628 42.6749 2.98948 43.8303 2.98948ZM57.2918 17.0322C56.8296 17.0322 56.5641 16.5937 56.5543 16.1338C56.5248 15.2461 57.1443 13.9627 57.5671 13.182C58.2948 11.8558 59.1109 10.4547 60.3106 9.74882C59.9566 10.1766 59.7599 10.7863 59.7599 11.3852C59.7599 12.1445 60.1729 12.8718 61.0874 12.8183C60.4679 14.2301 58.9143 17.0322 57.2918 17.0322ZM61.2939 12.3264C60.5072 12.4333 60.2319 12.0055 60.2319 11.3959C60.2319 10.6472 60.7235 9.63118 61.3135 9.63118C61.5692 9.63118 61.7265 9.87716 61.7462 10.2622C61.7659 10.9467 61.5299 11.7167 61.2939 12.3264ZM68.5999 13.2141C68.0197 14.305 66.4759 17.0322 65.1189 17.0322C64.6273 17.0322 64.3421 16.7221 64.3225 16.1873C64.2831 15.0108 65.2271 13.5242 65.8269 12.6151C66.4169 11.7381 68.2754 9.52422 69.2783 9.52422C69.5733 9.52422 69.7602 9.65257 69.77 9.99481C69.7995 10.8076 68.9834 12.4975 68.5999 13.2141ZM28.7463 6.47598C28.6676 7.07491 29.0314 7.58828 29.5427 7.58828C30.0541 7.58828 30.5555 7.07491 30.6342 6.47598C30.7129 5.87705 30.3491 5.36369 29.8377 5.36369C29.3264 5.36369 28.8249 5.87705 28.7463 6.47598Z" fill="#0C2340"/>
<path d="M71.3335 16.5721H70.9894V17.4812H70.8124V16.5721H70.478V16.4331H71.3433V16.5721H71.3335ZM71.6777 17.4705H71.4908V16.4224H71.776L72.1103 17.2138L72.4348 16.4224H72.72V17.4705H72.543V16.5935H72.5331L72.1693 17.4705H72.0513L71.6875 16.5935H71.6777V17.4705Z" fill="#0C2340"/>
</svg>
